<svg width="24" height="24" viewBox="0 0 24 24" fill="none" xmlns="http://www.w3.org/2000/svg">
<path d="M19 10V7C19 6.46957 18.7893 5.96086 18.4142 5.58579C18.0391 5.21071 17.5304 5 17 5H7C6.46957 5 5.96086 5.21071 5.58579 5.58579C5.21071 5.96086 5 6.46957 5 7V10C4.46957 10 4.37507 10.1249 4 10.5C3.62493 10.8751 3.5 11.4696 3.5 12V17H4.33L5 19H6L6.67 17H17.5L18 19H19L19.5 17H20.5V12C20.5 11.4696 20.3751 10.8751 20 10.5C19.6249 10.1249 19.5304 10 19 10ZM6.5 6.5H17.5V10H6.5V6.5ZM19 15.5H5V11.5H19V15.5Z" fill="#0E78D9"/>
</svg>
