<svg width="24" height="24" viewBox="0 0 24 24" fill="none" xmlns="http://www.w3.org/2000/svg">
<path d="M21.0002 10.5V7.99999C21.0002 6.34999 21.0002 5.25 18.75 5.25L13.5 5.25C12.73 5.25 12 5.25 12 6C12 5.25 11.27 5.25 10.5 5.25L5.25 5.25C3.00024 5.25 3.00024 6.34999 3.00024 7.99999V10.5C2.39024 11.05 2.25 11.12 2.25 12V18.75H3.75V16.5L20.25 16.5V18.75L21.75 18.75V12C21.75 11.12 21.6102 11.05 21.0002 10.5ZM13.5 6.75H18.75C19.5 6.75 19.5 7.44999 19.5 7.99999V10.5H12.75V7.99999C12.75 7.44999 12.75 6.75 13.5 6.75ZM4.5 7.99999C4.5 7.44999 4.5 6.75 5.25 6.75L10.5 6.75C11.25 6.75 11.25 7.44999 11.25 7.99999V10.5L4.5 10.5V7.99999ZM3.75 15V12.75C3.75 12.2 3.95 12 4.5 12L19.5 12C20.05 12 20.25 12.2 20.25 12.75V15H3.75Z" fill="#0E78D9"/>
</svg>
