<svg width="32" height="32" viewBox="0 0 32 32" fill="none" xmlns="http://www.w3.org/2000/svg">
<path d="M27.6958 13.5414L25.8718 8.06804C25.6072 7.27135 25.0983 6.57831 24.4173 6.08738C23.7364 5.59646 22.918 5.33263 22.0785 5.33338H9.92117C9.08169 5.33263 8.26332 5.59646 7.58235 6.08738C6.90138 6.57831 6.39244 7.27135 6.12784 8.06804L4.30384 13.5414C3.81932 13.7447 3.40554 14.0864 3.1143 14.5237C2.82305 14.9611 2.66729 15.4746 2.6665 16V22.6667C2.6665 23.6707 3.2305 24.536 4.05184 24.9907C4.0345 25.0787 3.99984 25.1587 3.99984 25.2507V28C3.99984 28.3537 4.14031 28.6928 4.39036 28.9429C4.64041 29.1929 4.97955 29.3334 5.33317 29.3334H6.6665C7.02013 29.3334 7.35926 29.1929 7.60931 28.9429C7.85936 28.6928 7.99984 28.3537 7.99984 28V25.3334H23.9998V28C23.9998 28.3537 24.1403 28.6928 24.3904 28.9429C24.6404 29.1929 24.9795 29.3334 25.3332 29.3334H26.6665C27.0201 29.3334 27.3593 29.1929 27.6093 28.9429C27.8594 28.6928 27.9998 28.3537 27.9998 28V25.2507C27.9998 25.1587 27.9652 25.0774 27.9478 24.9907C28.3657 24.7629 28.7147 24.427 28.9584 24.0182C29.2021 23.6094 29.3315 23.1426 29.3332 22.6667V16C29.3332 14.8947 28.6558 13.9454 27.6958 13.5414ZM5.33317 22.6667V16H26.6665L26.6692 22.6667H5.33317ZM9.92117 8.00004H22.0772C22.6518 8.00004 23.1612 8.36538 23.3425 8.91204L24.8172 13.3334H7.1825L8.65584 8.91204C8.7443 8.64643 8.91413 8.41541 9.14124 8.25172C9.36835 8.08803 9.64122 7.99997 9.92117 8.00004Z" fill="#0E78D9"/>
<path d="M8.6665 21.3334C9.77107 21.3334 10.6665 20.4379 10.6665 19.3334C10.6665 18.2288 9.77107 17.3334 8.6665 17.3334C7.56193 17.3334 6.6665 18.2288 6.6665 19.3334C6.6665 20.4379 7.56193 21.3334 8.6665 21.3334Z" fill="#0E78D9"/>
<path d="M23.3335 21.3334C24.4381 21.3334 25.3335 20.4379 25.3335 19.3334C25.3335 18.2288 24.4381 17.3334 23.3335 17.3334C22.2289 17.3334 21.3335 18.2288 21.3335 19.3334C21.3335 20.4379 22.2289 21.3334 23.3335 21.3334Z" fill="#0E78D9"/>
</svg>
