<svg width="32" height="32" viewBox="0 0 32 32" fill="none" xmlns="http://www.w3.org/2000/svg">
<path d="M29.3332 14.6667V4.8C29.3332 4.58783 29.2489 4.38434 29.0989 4.23431C28.9488 4.08429 28.7453 4 28.5332 4H3.4665C3.25433 4 3.05085 4.08429 2.90082 4.23431C2.75079 4.38434 2.6665 4.58783 2.6665 4.8V14.6667M29.3332 14.6667H2.6665M29.3332 14.6667L28.5432 18.112C28.4181 18.6582 28.1648 19.1364 27.8206 19.4763C27.4764 19.8162 27.0595 19.9998 26.6312 20H25.3332M2.6665 14.6667L3.4565 18.112C3.58157 18.6582 3.83485 19.1364 4.17905 19.4763C4.52325 19.8162 4.94019 19.9998 5.3685 20H6.6665M23.9998 9.33333H25.3332M11.3332 19.3333C11.3332 19.3333 11.3332 28.6667 6.6665 28.6667M20.6665 19.3333C20.6665 19.3333 20.6665 28.6667 25.3332 28.6667M15.9998 19.3333V28.6667" stroke="#0E78D9" stroke-width="1.5" stroke-linecap="round" stroke-linejoin="round"/>
</svg>
