<svg width="32" height="32" viewBox="0 0 32 32" fill="none" xmlns="http://www.w3.org/2000/svg">
<path d="M26.0656 14.6625C25.459 13.297 24.577 12.0715 23.475 11.0625L22.5656 10.2281C22.5347 10.2006 22.4976 10.181 22.4574 10.1712C22.4172 10.1613 22.3752 10.1615 22.3351 10.1717C22.295 10.1819 22.258 10.2017 22.2273 10.2296C22.1967 10.2574 22.1734 10.2923 22.1594 10.3312L21.7531 11.4969C21.5 12.2281 21.0344 12.975 20.375 13.7094C20.3313 13.7562 20.2813 13.7687 20.2469 13.7719C20.2125 13.775 20.1594 13.7687 20.1125 13.725C20.0687 13.6875 20.0469 13.6312 20.05 13.575C20.1656 11.6937 19.6031 9.57186 18.3719 7.26249C17.3531 5.34374 15.9375 3.84686 14.1687 2.80311L12.8781 2.04374C12.7094 1.94374 12.4938 2.07499 12.5031 2.27186L12.5719 3.77186C12.6187 4.79686 12.5 5.70311 12.2188 6.45624C11.875 7.37811 11.3812 8.23436 10.75 9.00311C10.3107 9.53737 9.81278 10.0206 9.26562 10.4437C7.94783 11.4568 6.87629 12.7548 6.13125 14.2406C5.38804 15.7394 5.00091 17.3895 5 19.0625C5 20.5375 5.29062 21.9656 5.86562 23.3125C6.42083 24.6093 7.22206 25.7862 8.225 26.7781C9.2375 27.7781 10.4125 28.5656 11.7219 29.1125C13.0781 29.6812 14.5156 29.9687 16 29.9687C17.4844 29.9687 18.9219 29.6812 20.2781 29.1156C21.5843 28.5719 22.772 27.779 23.775 26.7812C24.7875 25.7812 25.5812 24.6125 26.1344 23.3156C26.7085 21.9724 27.003 20.5264 27 19.0656C27 17.5406 26.6875 16.0594 26.0656 14.6625ZM22.2812 25.2656C20.6031 26.9281 18.375 27.8406 16 27.8406C13.625 27.8406 11.3969 26.9281 9.71875 25.2656C8.04688 23.6062 7.125 21.4062 7.125 19.0656C7.125 17.7062 7.43125 16.4031 8.03438 15.1906C8.62188 14.0062 9.49687 12.9469 10.5594 12.1312C11.237 11.6131 11.8516 11.0174 12.3906 10.3562C13.1719 9.40311 13.7844 8.34061 14.2094 7.19999C14.3837 6.72948 14.5104 6.24267 14.5875 5.74686C15.3406 6.44061 15.9719 7.27811 16.5 8.25936C17.5437 10.2156 18.025 11.9562 17.9312 13.4375C17.9089 13.7863 17.9658 14.1357 18.0979 14.4594C18.23 14.7831 18.4337 15.0726 18.6938 15.3062C18.9191 15.5098 19.1827 15.6666 19.4692 15.7674C19.7556 15.8683 20.0593 15.9112 20.3625 15.8937C20.9781 15.8625 21.5437 15.5906 21.9562 15.1312C22.3719 14.6656 22.7313 14.1906 23.0312 13.7062C23.4688 14.2656 23.8344 14.875 24.125 15.5312C24.6219 16.65 24.875 17.8406 24.875 19.0656C24.875 21.4062 23.9531 23.6094 22.2812 25.2656Z" fill="#0E78D9"/>
</svg>
