<svg width="24" height="24" viewBox="0 0 24 24" fill="none" xmlns="http://www.w3.org/2000/svg">
<path fill-rule="evenodd" clip-rule="evenodd" d="M9.00004 1.5H19.5C20.3285 1.5 21 2.17157 21 3V20.25C21 21.0784 20.3285 21.75 19.5 21.75H5.25004C4.42161 21.75 3.75004 21.0784 3.75004 20.25V15.8322C3.68446 15.8322 3.61466 15.8442 3.54467 15.8562C3.40361 15.8805 3.26173 15.9048 3.15185 15.8314C2.98744 15.7215 2.8593 15.5653 2.78363 15.3826C2.70796 15.1999 2.68816 14.9989 2.72672 14.805C2.76529 14.611 2.8605 14.4328 3.00031 14.293L7.50004 9.58599V3C7.50004 2.17157 8.17161 1.5 9.00004 1.5ZM11.2498 20.25H5.24977V14.414L8.24976 11.25L11.2498 14.25V20.25ZM12.7498 20.25H19.4998V3H8.9998V9.58599L13.7068 14.293C13.8471 14.4327 13.9427 14.6109 13.9816 14.805C14.0204 14.9991 14.0007 15.2004 13.925 15.3833C13.8492 15.5662 13.7208 15.7224 13.5561 15.8322C13.4407 15.9092 13.1882 15.8785 12.9793 15.8531C12.8902 15.8422 12.809 15.8324 12.7498 15.8322V20.25Z" fill="#0E78D9"/>
<path d="M10.7499 4.5H12.7499V6.5H10.7499V4.5ZM15.2499 4.5H17.2499V6.5H15.2499V4.5ZM15.2499 8.531H17.2499V10.5H15.2499V8.531ZM15.2499 12.5H17.2499V14.5H15.2499V12.5ZM7.49986 15L8.99985 15L8.99961 16.5H7.49986V15Z" fill="#0E78D9"/>
<path d="M15.2499 16.5H17.2499V18.5H15.2499V16.5Z" fill="#0E78D9"/>
<path d="M10.7499 8.5H12.7499V10.5H10.7499V8.5Z" fill="#0E78D9"/>
</svg>
