<svg width="32" height="32" viewBox="0 0 32 32" fill="none" xmlns="http://www.w3.org/2000/svg">
<path fill-rule="evenodd" clip-rule="evenodd" d="M17.5419 3.04027L28.2768 9.0041C29.6853 9.78658 29.6853 11.5467 28.2768 12.3292L26.4694 13.3333L28.2768 14.3374C29.6853 15.1199 29.6853 16.88 28.2768 17.6625L26.4694 18.6666L28.2768 19.6708C29.6853 20.4532 29.6853 22.2133 28.2768 22.9958L17.5419 28.9596C16.6452 29.4578 15.3545 29.4578 14.4577 28.9596L3.72286 22.9958C2.31439 22.2133 2.31439 20.4532 3.72286 19.6708L5.53031 18.6666L3.72286 17.6625C2.31439 16.88 2.31439 15.1199 3.72286 14.3374L5.53031 13.3333L3.72286 12.3292C2.31439 11.5467 2.31439 9.78658 3.72286 9.0041L14.4577 3.04027C15.3545 2.54208 16.6452 2.54208 17.5419 3.04027ZM17.5419 18.293L23.7239 14.8586L25.7784 16L23.7239 17.1413L20.9784 18.6666L16.2469 21.2952C16.1555 21.346 15.8441 21.346 15.7528 21.2952L11.0213 18.6666L8.27581 17.1413L6.22131 16L8.27581 14.8586L14.4577 18.293C15.3545 18.7912 16.6452 18.7912 17.5419 18.293ZM8.27581 20.1919L6.22131 21.3333L15.7528 26.6286C15.8441 26.6793 16.1555 26.6793 16.2469 26.6286L25.7784 21.3333L23.7239 20.1919L17.5419 23.6263C16.6452 24.1245 15.3545 24.1245 14.4577 23.6263L8.27581 20.1919ZM15.7528 5.37136C15.8441 5.3206 16.1555 5.3206 16.2469 5.37136L25.7784 10.6666L16.2469 15.9619C16.1555 16.0126 15.8441 16.0126 15.7528 15.9619L6.22131 10.6666L15.7528 5.37136Z" fill="#0E78D9"/>
</svg>
