<svg width="137" height="40" viewBox="0 0 137 40" fill="none" xmlns="http://www.w3.org/2000/svg">
<g clip-path="url(#clip0_3_8)">
<path d="M41.8924 28.9665H37.9326V15H41.8924V28.9665ZM56.8743 28.9665H51.0022L44.3504 23.4752V20.2572L50.7005 15H56.055L48.0564 21.8183L56.8743 28.9665Z" fill="white"/>
<path d="M41.8924 28.9665H37.9326V15H41.8924V28.9665ZM56.8743 28.9665H51.0022L44.3504 23.4752V20.2572L50.7005 15H56.055L48.0564 21.8183L56.8743 28.9665Z" fill="white"/>
<path d="M65.3552 18.1743L61.7479 24.712C61.6266 24.9277 61.4842 25.1294 61.3192 25.3155C61.1542 25.5017 60.9243 25.6638 60.6296 25.802C60.3349 25.9402 59.9823 26.0093 59.5706 26.0093C59.1771 26.0093 58.8274 25.936 58.5228 25.7908C58.2182 25.6455 57.9728 25.4749 57.7881 25.2775C57.6034 25.08 57.4778 24.9066 57.4102 24.7529L53.8353 18.1715H56.3201L59.1771 23.3159C59.2589 23.4654 59.3196 23.5641 59.3604 23.6134C59.4013 23.6628 59.4676 23.6882 59.5593 23.6882C59.658 23.6882 59.7299 23.6614 59.775 23.6078C59.8188 23.5542 59.8808 23.4569 59.9584 23.3145L62.8366 18.1701H65.3552V18.1743Z" fill="white"/>
<path d="M65.3552 18.1743L61.7479 24.712C61.6266 24.9277 61.4842 25.1294 61.3192 25.3155C61.1542 25.5017 60.9243 25.6638 60.6296 25.802C60.3349 25.9402 59.9823 26.0093 59.5706 26.0093C59.1771 26.0093 58.8274 25.936 58.5228 25.7908C58.2182 25.6455 57.9728 25.4749 57.7881 25.2775C57.6034 25.08 57.4778 24.9066 57.4102 24.7529L53.8353 18.1715H56.3201L59.1771 23.3159C59.2589 23.4654 59.3196 23.5641 59.3604 23.6134C59.4013 23.6628 59.4676 23.6882 59.5593 23.6882C59.658 23.6882 59.7299 23.6614 59.775 23.6078C59.8188 23.5542 59.8808 23.4569 59.9584 23.3145L62.8366 18.1701H65.3552V18.1743Z" fill="white"/>
<path d="M74.0222 25.8021V25.2704C73.9615 25.4016 73.8417 25.5228 73.6597 25.6342C73.4792 25.7456 73.3157 25.8021 73.1704 25.8021H66.9726C66.8062 25.8021 66.6384 25.7583 66.4706 25.6723C66.3028 25.5849 66.1646 25.4636 66.0588 25.3085C65.9531 25.152 65.8981 24.9771 65.8938 24.7825C65.8896 24.406 65.8854 23.9307 65.8811 23.3568C65.8755 22.7828 65.8727 22.4796 65.8727 22.4472C65.8727 22.0185 65.9869 21.6801 66.2154 21.4333C66.4438 21.1865 66.7103 21.0638 67.0163 21.0638H72.8785C73.1479 21.0638 73.3834 21.1329 73.5864 21.2711C73.7881 21.4093 73.9333 21.5475 74.0222 21.6857V20.9905C74.0222 20.8452 73.9785 20.6986 73.8924 20.5477C73.805 20.3982 73.6823 20.2727 73.523 20.174C73.3636 20.0753 73.1775 20.0259 72.9645 20.0259H65.9474V18.1743H73.8586C74.1914 18.1743 74.5073 18.2561 74.8062 18.4197C75.1038 18.5833 75.3661 18.7948 75.5931 19.0557C75.8202 19.3166 75.9964 19.5874 76.1219 19.8666C76.2474 20.1472 76.3109 20.3968 76.3109 20.6168V25.8021H74.0222ZM73.585 23.4301C73.585 23.3342 73.5498 23.2468 73.4778 23.1664C73.4073 23.086 73.3185 23.0226 73.2141 22.9746C73.1098 22.9267 73.0252 22.9027 72.9617 22.9027H68.6367C68.4378 22.9027 68.2996 22.9704 68.2221 23.1044C68.1445 23.2397 68.105 23.3441 68.105 23.4188C68.105 23.5754 68.1558 23.7009 68.2573 23.7968C68.3588 23.8927 68.4604 23.9406 68.5633 23.9406H73.0858C73.1845 23.9406 73.2931 23.8884 73.4101 23.7841C73.5272 23.6797 73.585 23.5613 73.585 23.4301Z" fill="white"/>
<path d="M74.0222 25.8021V25.2704C73.9615 25.4016 73.8417 25.5228 73.6597 25.6342C73.4792 25.7456 73.3157 25.8021 73.1704 25.8021H66.9726C66.8062 25.8021 66.6384 25.7583 66.4706 25.6723C66.3028 25.5849 66.1646 25.4636 66.0588 25.3085C65.9531 25.152 65.8981 24.9771 65.8938 24.7825C65.8896 24.406 65.8854 23.9307 65.8811 23.3568C65.8755 22.7828 65.8727 22.4796 65.8727 22.4472C65.8727 22.0185 65.9869 21.6801 66.2154 21.4333C66.4438 21.1865 66.7103 21.0638 67.0163 21.0638H72.8785C73.1479 21.0638 73.3834 21.1329 73.5864 21.2711C73.7881 21.4093 73.9333 21.5475 74.0222 21.6857V20.9905C74.0222 20.8452 73.9785 20.6986 73.8924 20.5477C73.805 20.3982 73.6823 20.2727 73.523 20.174C73.3636 20.0753 73.1775 20.0259 72.9645 20.0259H65.9474V18.1743H73.8586C74.1914 18.1743 74.5073 18.2561 74.8062 18.4197C75.1038 18.5833 75.3661 18.7948 75.5931 19.0557C75.8202 19.3166 75.9964 19.5874 76.1219 19.8666C76.2474 20.1472 76.3109 20.3968 76.3109 20.6168V25.8021H74.0222ZM73.585 23.4301C73.585 23.3342 73.5498 23.2468 73.4778 23.1664C73.4073 23.086 73.3185 23.0226 73.2141 22.9746C73.1098 22.9267 73.0252 22.9027 72.9617 22.9027H68.6367C68.4378 22.9027 68.2996 22.9704 68.2221 23.1044C68.1445 23.2397 68.105 23.3441 68.105 23.4188C68.105 23.5754 68.1558 23.7009 68.2573 23.7968C68.3588 23.8927 68.4604 23.9406 68.5633 23.9406H73.0858C73.1845 23.9406 73.2931 23.8884 73.4101 23.7841C73.5272 23.6797 73.585 23.5613 73.585 23.4301Z" fill="white"/>
<path d="M90.3705 28.2868H87.5177L82.4932 22.8928H79.6502V25.8035H77.4376V21.0638H84.3335C84.4717 21.0638 84.6085 21.013 84.7424 20.9115C84.8764 20.81 84.9441 20.669 84.9441 20.4885C84.9441 20.3573 84.9116 20.253 84.8454 20.174C84.7791 20.0964 84.6945 20.04 84.5873 20.0033C84.4815 19.9681 84.3687 19.9498 84.2531 19.9498H77.4376V18.1729H85.7634C86.154 18.1729 86.4882 18.3125 86.7689 18.5932C87.0495 18.8738 87.1891 19.2108 87.1891 19.6043V21.5094C87.1891 21.8465 87.12 22.1073 86.9832 22.2949C86.8464 22.481 86.6828 22.6094 86.4925 22.6799C86.3021 22.7504 86.0835 22.8012 85.8367 22.8294C85.5899 22.8576 85.4447 22.8787 85.4024 22.8928L90.3705 28.2868Z" fill="white"/>
<path d="M90.3705 28.2868H87.5177L82.4932 22.8928H79.6502V25.8035H77.4376V21.0638H84.3335C84.4717 21.0638 84.6085 21.013 84.7424 20.9115C84.8764 20.81 84.9441 20.669 84.9441 20.4885C84.9441 20.3573 84.9116 20.253 84.8454 20.174C84.7791 20.0964 84.6945 20.04 84.5873 20.0033C84.4815 19.9681 84.3687 19.9498 84.2531 19.9498H77.4376V18.1729H85.7634C86.154 18.1729 86.4882 18.3125 86.7689 18.5932C87.0495 18.8738 87.1891 19.2108 87.1891 19.6043V21.5094C87.1891 21.8465 87.12 22.1073 86.9832 22.2949C86.8464 22.481 86.6828 22.6094 86.4925 22.6799C86.3021 22.7504 86.0835 22.8012 85.8367 22.8294C85.5899 22.8576 85.4447 22.8787 85.4024 22.8928L90.3705 28.2868Z" fill="white"/>
<path d="M93.9129 25.7922H91.7525V19.9991H87.7997V18.1645H93.9129V25.7922ZM100.611 20.0146H96.6585V25.802H94.4981V18.1729H100.611V20.0146Z" fill="white"/>
<path d="M93.9129 25.7922H91.7525V19.9991H87.7997V18.1645H93.9129V25.7922ZM100.611 20.0146H96.6585V25.802H94.4981V18.1729H100.611V20.0146Z" fill="white"/>
<path d="M103.808 25.7922H101.617V18.1743H103.808V25.7922Z" fill="white"/>
<path d="M103.808 25.7922H101.617V18.1743H103.808V25.7922Z" fill="white"/>
<path d="M117.938 28.2868H115.085L110.061 22.8928H107.218V25.8035H105.005V21.0638H111.901C112.039 21.0638 112.176 21.013 112.31 20.9115C112.444 20.81 112.512 20.669 112.512 20.4885C112.512 20.3573 112.479 20.253 112.413 20.174C112.347 20.0964 112.262 20.04 112.155 20.0033C112.049 19.9681 111.937 19.9498 111.821 19.9498H105.005V18.1729H113.331C113.722 18.1729 114.056 18.3125 114.337 18.5932C114.617 18.8738 114.757 19.2108 114.757 19.6043V21.5094C114.757 21.8465 114.688 22.1073 114.551 22.2949C114.414 22.481 114.251 22.6094 114.06 22.6799C113.87 22.7504 113.651 22.8012 113.405 22.8294C113.158 22.8576 113.012 22.8787 112.97 22.8928L117.938 28.2868Z" fill="white"/>
<path d="M117.938 28.2868H115.085L110.061 22.8928H107.218V25.8035H105.005V21.0638H111.901C112.039 21.0638 112.176 21.013 112.31 20.9115C112.444 20.81 112.512 20.669 112.512 20.4885C112.512 20.3573 112.479 20.253 112.413 20.174C112.347 20.0964 112.262 20.04 112.155 20.0033C112.049 19.9681 111.937 19.9498 111.821 19.9498H105.005V18.1729H113.331C113.722 18.1729 114.056 18.3125 114.337 18.5932C114.617 18.8738 114.757 19.2108 114.757 19.6043V21.5094C114.757 21.8465 114.688 22.1073 114.551 22.2949C114.414 22.481 114.251 22.6094 114.06 22.6799C113.87 22.7504 113.651 22.8012 113.405 22.8294C113.158 22.8576 113.012 22.8787 112.97 22.8928L117.938 28.2868Z" fill="white"/>
<path d="M125.36 23.722C125.36 23.9815 125.26 24.2748 125.06 24.6048C124.859 24.9348 124.607 25.2168 124.301 25.4509C123.996 25.685 123.695 25.802 123.397 25.802H118.017C117.584 25.802 117.182 25.6765 116.813 25.4241C116.442 25.1717 116.15 24.8544 115.937 24.4694C115.724 24.0844 115.619 23.7107 115.619 23.3497V18.1729H117.779V22.7856C117.779 22.9944 117.84 23.1876 117.962 23.3624C118.085 23.5373 118.229 23.6769 118.394 23.777C118.559 23.8785 118.705 23.9293 118.832 23.9293H122.135C122.273 23.9293 122.42 23.8701 122.574 23.7516C122.727 23.6332 122.857 23.4907 122.96 23.3258C123.063 23.1608 123.114 23.0197 123.114 22.9027V18.1729H125.359V23.722H125.36Z" fill="white"/>
<path d="M125.36 23.722C125.36 23.9815 125.26 24.2748 125.06 24.6048C124.859 24.9348 124.607 25.2168 124.301 25.4509C123.996 25.685 123.695 25.802 123.397 25.802H118.017C117.584 25.802 117.182 25.6765 116.813 25.4241C116.442 25.1717 116.15 24.8544 115.937 24.4694C115.724 24.0844 115.619 23.7107 115.619 23.3497V18.1729H117.779V22.7856C117.779 22.9944 117.84 23.1876 117.962 23.3624C118.085 23.5373 118.229 23.6769 118.394 23.777C118.559 23.8785 118.705 23.9293 118.832 23.9293H122.135C122.273 23.9293 122.42 23.8701 122.574 23.7516C122.727 23.6332 122.857 23.4907 122.96 23.3258C123.063 23.1608 123.114 23.0197 123.114 22.9027V18.1729H125.359V23.722H125.36Z" fill="white"/>
<path d="M136.069 24.6274C136.069 24.9461 135.976 25.2225 135.79 25.4551C135.604 25.6878 135.341 25.8035 135.006 25.8035H126.179V23.9307H133.256C133.38 23.9307 133.511 23.8856 133.649 23.7954C133.787 23.7051 133.856 23.5669 133.856 23.3836C133.856 23.2849 133.827 23.1904 133.769 23.1015C133.71 23.0127 133.622 22.9422 133.505 22.8886C133.388 22.835 133.261 22.8082 133.123 22.8082H127.77C127.515 22.8082 127.288 22.7434 127.088 22.6136C126.887 22.4839 126.734 22.333 126.625 22.1609C126.516 21.9889 126.463 21.8479 126.463 21.7379V19.2644C126.463 19.0515 126.581 18.8174 126.817 18.5593C127.052 18.3027 127.357 18.1743 127.729 18.1743H135.656V19.9836H129.113C128.977 19.9836 128.87 20.04 128.788 20.1542C128.706 20.2671 128.666 20.3869 128.666 20.511C128.666 20.6253 128.722 20.7451 128.833 20.8734C128.945 21.0018 129.104 21.0652 129.31 21.0652H134.679C135.154 21.0652 135.505 21.1879 135.732 21.4319C135.959 21.6773 136.072 21.9974 136.072 22.395V24.6274H136.069Z" fill="white"/>
<path d="M136.069 24.6274C136.069 24.9461 135.976 25.2225 135.79 25.4551C135.604 25.6878 135.341 25.8035 135.006 25.8035H126.179V23.9307H133.256C133.38 23.9307 133.511 23.8856 133.649 23.7954C133.787 23.7051 133.856 23.5669 133.856 23.3836C133.856 23.2849 133.827 23.1904 133.769 23.1015C133.71 23.0127 133.622 22.9422 133.505 22.8886C133.388 22.835 133.261 22.8082 133.123 22.8082H127.77C127.515 22.8082 127.288 22.7434 127.088 22.6136C126.887 22.4839 126.734 22.333 126.625 22.1609C126.516 21.9889 126.463 21.8479 126.463 21.7379V19.2644C126.463 19.0515 126.581 18.8174 126.817 18.5593C127.052 18.3027 127.357 18.1743 127.729 18.1743H135.656V19.9836H129.113C128.977 19.9836 128.87 20.04 128.788 20.1542C128.706 20.2671 128.666 20.3869 128.666 20.511C128.666 20.6253 128.722 20.7451 128.833 20.8734C128.945 21.0018 129.104 21.0652 129.31 21.0652H134.679C135.154 21.0652 135.505 21.1879 135.732 21.4319C135.959 21.6773 136.072 21.9974 136.072 22.395V24.6274H136.069Z" fill="white"/>
<path d="M29.6449 6.23868C29.463 6.05535 29.2092 5.94958 28.9511 5.94958H22.821V7.9168H27.9668V36.6818H22.821V38.6505H28.9511C29.2092 38.6505 29.463 38.5461 29.6449 38.3614C29.8283 38.1795 29.9326 37.9256 29.9326 37.6661V6.93531C29.9326 6.67584 29.8297 6.422 29.6449 6.23868Z" fill="white"/>
<path d="M19.4436 24.9406C19.703 24.9406 19.9132 24.7303 19.9132 24.471C19.9132 24.2117 19.703 24.0014 19.4436 24.0014C19.1843 24.0014 18.974 24.2117 18.974 24.471C18.974 24.7303 19.1843 24.9406 19.4436 24.9406Z" fill="white"/>
<path d="M19.029 21.5858H19.2222C19.3449 21.5858 19.4436 21.487 19.4436 21.3644V21.1712C19.4436 21.0485 19.3449 20.9498 19.2222 20.9498H19.029C18.9063 20.9498 18.8076 21.0485 18.8076 21.1712V21.3644C18.8076 21.487 18.9063 21.5858 19.029 21.5858Z" fill="white"/>
<path d="M19.8314 21.5858H20.0246C20.1473 21.5858 20.246 21.487 20.246 21.3644V21.1712C20.246 21.0485 20.1473 20.9498 20.0246 20.9498H19.8314C19.7087 20.9498 19.61 21.0485 19.61 21.1712V21.3644C19.61 21.487 19.7101 21.5858 19.8314 21.5858Z" fill="white"/>
<path d="M19.029 22.3712H19.2222C19.3449 22.3712 19.4436 22.2725 19.4436 22.1498V21.9566C19.4436 21.834 19.3449 21.7352 19.2222 21.7352H19.029C18.9063 21.7352 18.8076 21.834 18.8076 21.9566V22.1498C18.8076 22.2711 18.9063 22.3712 19.029 22.3712Z" fill="white"/>
<path d="M19.8314 22.3712H20.0246C20.1473 22.3712 20.246 22.2725 20.246 22.1498V21.9566C20.246 21.834 20.1473 21.7352 20.0246 21.7352H19.8314C19.7087 21.7352 19.61 21.834 19.61 21.9566V22.1498C19.61 22.2711 19.7101 22.3712 19.8314 22.3712Z" fill="white"/>
<path d="M19.029 23.1553H19.2222C19.3449 23.1553 19.4436 23.0566 19.4436 22.9339V22.7407C19.4436 22.618 19.3449 22.5193 19.2222 22.5193H19.029C18.9063 22.5193 18.8076 22.618 18.8076 22.7407V22.9339C18.8076 23.0566 18.9063 23.1553 19.029 23.1553Z" fill="white"/>
<path d="M19.8314 23.1553H20.0246C20.1473 23.1553 20.246 23.0566 20.246 22.9339V22.7407C20.246 22.618 20.1473 22.5193 20.0246 22.5193H19.8314C19.7087 22.5193 19.61 22.618 19.61 22.7407V22.9339C19.61 23.0566 19.7101 23.1553 19.8314 23.1553Z" fill="white"/>
<path d="M28.9229 17.829V19.6397H28.5182V14.2725L28.1981 13.9961L27.9428 14.2514V14.6984L27.7088 14.4855L27.3463 14.6984V15.1031H26.857V15.6362H26.197V15.9774H25.8346V19.1292H24.2806V20.3857H23.7052V20.9399H22.821V22.3712V23.5502V37.0442H29.2247V23.5516V22.3726V17.8318H28.9229V17.829ZM23.7997 36.6832H23.505V22.0525H23.7997V36.6832ZM24.4851 36.6832H24.1903V20.9004H24.4851V36.6832ZM25.1888 36.6832H24.894V19.8667H25.1888V36.6832ZM25.8064 36.6832H25.5117V19.8667H25.8064V36.6832ZM26.9444 36.6832H26.6497V16.8236H26.9444V36.6832ZM27.5621 36.6832H27.2674V16.8236H27.5621V36.6832Z" fill="white"/>
<path d="M20.6677 4.83412C20.6493 4.83553 20.6324 4.83412 20.6141 4.83553L20.2474 4.86797H20.246L12.8877 5.51947V6.33033H11.634V5.62806C10.3493 5.73946 9.06463 5.85087 7.77995 5.96227V7.40489H6.27246V10.9684V32.9378V36.1586C6.27246 36.5436 6.27246 36.9272 6.27246 37.3122C8.98566 37.7634 11.6989 38.2147 14.4135 38.6674L20.5055 39.7518C20.5577 39.7617 20.6098 39.7659 20.662 39.7687C21.1034 39.8463 21.5434 39.9238 21.9848 40C21.9848 39.529 21.9848 39.0594 21.9862 38.5884C21.9876 38.5616 21.9904 38.5348 21.9904 38.508V10.1167C22.0003 8.3187 22.0088 6.52071 22.0186 4.72272C21.566 4.75938 21.1175 4.79746 20.6677 4.83412ZM6.8182 8.75445H7.54163V9.47787H6.8182V8.75445ZM7.61778 15.56H6.89435V14.8366H7.61778V15.56ZM9.77678 7.25823H11.634V9.11545H9.77678V7.25823ZM12.7142 14.4276H8.26647V9.9799H12.7142V14.4276ZM14.0285 9.3157H13.3051V8.59228H14.0285V9.3157ZM15.5995 11.5776H16.8531V12.8313H15.5995V11.5776ZM14.9522 24.6642V24.306C14.9522 24.1932 15.041 24.0987 15.1538 24.0931L19.8117 23.859C19.8159 23.859 19.8187 23.859 19.823 23.859C19.9386 23.859 20.0345 23.952 20.0359 24.0691L20.0472 24.8659C20.0486 24.9857 19.9527 25.0816 19.8342 25.0816C19.8314 25.0816 19.8286 25.0816 19.8244 25.0816C18.2675 25.0139 16.7121 24.9448 15.1552 24.8771C15.0424 24.8715 14.9522 24.7784 14.9522 24.6642ZM20.5125 26.8288C20.5125 27.1574 20.246 27.4239 19.9174 27.4239H19.1362C18.8076 27.4239 18.5411 27.1574 18.5411 26.8288V25.2085L19.8159 25.2649C19.8216 25.2649 19.8272 25.2649 19.8328 25.2649C19.94 25.2649 20.0401 25.2226 20.1149 25.1465C20.1896 25.0703 20.2305 24.9702 20.2291 24.863L20.2178 24.0663C20.215 23.8505 20.0373 23.6757 19.8216 23.6757C19.8145 23.6757 19.8089 23.6757 19.8018 23.6757L18.5411 23.7391V20.8891C18.5411 20.5605 18.8076 20.294 19.1362 20.294H19.9174C20.246 20.294 20.5125 20.5605 20.5125 20.8891V26.8288Z" fill="white"/>
<path d="M2.51858 12.2038H4.97936V14.6646H2.51858V12.2038Z" fill="white"/>
<path d="M1.3157 1.13239H5.76202V5.58012H1.3157V1.13239Z" fill="white"/>
<path d="M8.68394 1.85016H9.93618V3.10381H8.68394V1.85016Z" fill="white"/>
<path d="M1.14224 9.22969H2.39589V10.4819H1.14224V9.22969Z" fill="white"/>
<path d="M2.3959 6.44314H4.25312V8.30036H2.3959V6.44314Z" fill="white"/>
<path d="M0 6.24291H0.724837V6.96774H0V6.24291Z" fill="white"/>
<path d="M4.43223 8.59229H5.15565V9.31571H4.43223V8.59229Z" fill="white"/>
<path d="M6.41213 0H7.13556V0.723428H6.41213V0Z" fill="white"/>
<path d="M6.48687 6.08214H7.2117V6.80557H6.48687V6.08214Z" fill="white"/>
</g>
<defs>
<clipPath id="clip0_3_8">
<rect width="136.072" height="40" fill="white"/>
</clipPath>
</defs>
</svg>
