<svg width="24" height="24" viewBox="0 0 24 24" fill="none" xmlns="http://www.w3.org/2000/svg">
<path d="M7.71422 12.8571C11.1405 12.8571 14.1428 14.1792 14.1428 17.0816C14.1428 18.603 13.5522 19.2857 12.3025 19.2857H3.12598C1.87628 19.2857 1.28564 18.603 1.28564 17.0816C1.28564 14.1792 4.28797 12.8571 7.71422 12.8571ZM16.7142 12.8571C20.1405 12.8571 23.1428 14.1792 23.1428 17.0816C23.1428 18.603 22.5522 19.2857 21.3025 19.2857H16.2856C15.8123 19.2857 15.4285 18.9019 15.4285 18.4286C15.4285 17.9552 15.8123 17.5714 16.2856 17.5714L21.3537 17.5716C21.3683 17.5718 21.3804 17.5722 21.3903 17.5728L21.4011 17.574L21.4031 17.5613C21.4122 17.4917 21.4238 17.3719 21.4274 17.1948L21.4285 17.0816C21.4285 15.5103 19.2964 14.5714 16.7142 14.5714C16.3476 14.5714 15.9443 14.5972 15.5401 14.6493C15.0706 14.7099 14.6409 14.3784 14.5804 13.9089C14.5198 13.4394 14.8513 13.0097 15.3208 12.9491C15.7979 12.8875 16.2745 12.8571 16.7142 12.8571ZM7.71422 14.5714C5.13206 14.5714 2.99993 15.5103 2.99993 17.0816C2.99993 17.3219 3.01446 17.4778 3.02529 17.5613L3.0265 17.574L3.03813 17.5728L3.05466 17.5721L12.3675 17.5719C12.3761 17.5721 12.3837 17.5724 12.3903 17.5728L12.4011 17.574L12.4031 17.5613C12.414 17.4778 12.4285 17.3219 12.4285 17.0816C12.4285 15.5103 10.2964 14.5714 7.71422 14.5714ZM16.7142 4.28571C18.7267 4.28571 20.3571 5.91607 20.3571 7.92856C20.3571 9.94106 18.7267 11.5714 16.7142 11.5714C14.7017 11.5714 13.0714 9.94106 13.0714 7.92856C13.0714 5.91607 14.7017 4.28571 16.7142 4.28571ZM7.71422 4.28571C9.72671 4.28571 11.3571 5.91607 11.3571 7.92856C11.3571 9.94106 9.72671 11.5714 7.71422 11.5714C5.70172 11.5714 4.07136 9.94106 4.07136 7.92856C4.07136 5.91607 5.70172 4.28571 7.71422 4.28571ZM16.7142 5.99999C15.6485 5.99999 14.7856 6.86284 14.7856 7.92856C14.7856 8.99428 15.6485 9.85713 16.7142 9.85713C17.7799 9.85713 18.6428 8.99428 18.6428 7.92856C18.6428 6.86284 17.7799 5.99999 16.7142 5.99999ZM7.71422 5.99999C6.6485 5.99999 5.78564 6.86284 5.78564 7.92856C5.78564 8.99428 6.6485 9.85713 7.71422 9.85713C8.77994 9.85713 9.64279 8.99428 9.64279 7.92856C9.64279 6.86284 8.77994 5.99999 7.71422 5.99999Z" fill="#0E78D9"/>
</svg>
