<svg width="32" height="32" viewBox="0 0 32 32" fill="none" xmlns="http://www.w3.org/2000/svg">
<path fill-rule="evenodd" clip-rule="evenodd" d="M29.3332 15.9988C29.3332 13.7555 27.826 11.9988 25.3332 11.9988H21.2358L21.2729 11.8978C21.31 11.7976 21.4144 11.5224 21.5158 11.255L21.5162 11.2539C21.6059 11.0177 21.6931 10.7878 21.7293 10.6907C21.9828 10.0102 22.1678 9.46194 22.3175 8.91897C22.5437 8.09831 22.6665 7.35895 22.6665 6.66547C22.6665 4.70279 21.4557 3.48376 19.6642 2.96211C18.8562 2.72684 18.1529 2.66534 17.3332 2.66547H16.6938L16.2935 3.16398C15.8413 3.72712 14.9532 4.74204 13.9292 5.91214C12.0402 8.07069 9.68904 10.7573 8.76031 12.11C8.51932 12.0384 8.26407 12 7.99984 12H5.33317C3.86041 12 2.6665 13.1939 2.6665 14.6667V26.6667C2.6665 28.1394 3.86041 29.3333 5.33317 29.3333H7.99984C8.916 29.3333 9.72426 28.8713 10.2043 28.1676C10.6088 28.4292 11.0601 28.6475 11.5507 28.823C12.6738 29.2249 13.7876 29.3482 14.7124 29.3313L23.9998 29.3321C27.6734 29.3321 29.3332 23.9236 29.3332 15.9988ZM12.449 26.3122C11.2691 25.8901 10.6665 25.2018 10.6665 23.9988V14.6667V14.6655C10.6665 14.3452 10.7257 14.0616 10.8555 13.7588C11.0884 13.2148 13.2023 10.8031 15.206 8.51716L15.206 8.51706L15.2061 8.51703L15.2061 8.51694L15.2062 8.51686C16.2403 7.33713 17.2449 6.19093 17.9465 5.35231C18.2817 5.37745 18.5977 5.42897 18.9187 5.52245C19.6827 5.74493 19.9998 6.06417 19.9998 6.66547C19.9998 7.08758 19.9144 7.60189 19.7467 8.21028C19.6214 8.6649 19.4591 9.14596 19.2304 9.75968C19.198 9.84664 19.1172 10.0595 19.0313 10.286L19.0309 10.2871L19.0301 10.2891C18.9254 10.5651 18.8133 10.8606 18.7718 10.9729C18.5984 11.4417 18.4842 11.7869 18.406 12.1005C18.0739 13.4339 18.4071 14.6655 19.9998 14.6655H25.3332C26.2548 14.6655 26.6665 15.1453 26.6665 15.9988C26.6665 22.3865 25.3533 26.6655 23.9998 26.6655H14.6665L14.6173 26.6663C14.0337 26.6767 13.214 26.586 12.449 26.3122ZM5.33317 26.6667V14.6667H7.99984V26.6667H5.33317Z" fill="#0E78D9"/>
</svg>
