<svg width="24" height="24" viewBox="0 0 24 24" fill="none" xmlns="http://www.w3.org/2000/svg">
<path d="M15 11.9969C15 12.1959 14.921 12.3866 14.7803 12.5273C14.6397 12.6679 14.4489 12.7469 14.25 12.7469C14.0511 12.7469 13.8603 12.6679 13.7197 12.5273C13.579 12.3866 13.5 12.1959 13.5 11.9969C13.5 11.798 13.579 11.6073 13.7197 11.4666C13.8603 11.326 14.0511 11.2469 14.25 11.2469C14.4489 11.2469 14.6397 11.326 14.7803 11.4666C14.921 11.6073 15 11.798 15 11.9969Z" fill="#0E78D9"/>
<path d="M11.397 3.01497C11.2882 2.99323 11.176 2.99589 11.0684 3.02275C10.9608 3.04961 10.8604 3.10001 10.7746 3.17031C10.6889 3.24061 10.6197 3.32906 10.5722 3.4293C10.5247 3.52953 10.5001 3.63906 10.5 3.74997V20.2455C10.5001 20.3564 10.5247 20.4659 10.5722 20.5662C10.6197 20.6664 10.6889 20.7548 10.7746 20.8251C10.8604 20.8954 10.9608 20.9458 11.0684 20.9727C11.176 20.9996 11.2882 21.0022 11.397 20.9805L18.897 19.4805C19.067 19.4465 19.2199 19.3547 19.3298 19.2207C19.4398 19.0867 19.4999 18.9188 19.5 18.7455V5.24997C19.4999 5.07666 19.4398 4.90872 19.3298 4.77473C19.2199 4.64073 19.067 4.54895 18.897 4.51497L11.397 3.01497ZM12 19.3305V4.66497L18 5.86497V18.1305L12 19.3305Z" fill="#0E78D9"/>
<path d="M9 19.4955V17.9955H6V6H9V4.5H5.25C5.05109 4.5 4.86032 4.57902 4.71967 4.71967C4.57902 4.86032 4.5 5.05109 4.5 5.25V18.7455C4.5 18.9444 4.57902 19.1352 4.71967 19.2758C4.86032 19.4165 5.05109 19.4955 5.25 19.4955H9Z" fill="#0E78D9"/>
</svg>
