<svg width="33" height="32" viewBox="0 0 33 32" fill="none" xmlns="http://www.w3.org/2000/svg">
<path fill-rule="evenodd" clip-rule="evenodd" d="M13.8334 24C7.94238 24 3.16675 19.2244 3.16675 13.3333C3.16675 7.44229 7.94238 2.66666 13.8334 2.66666C19.7245 2.66666 24.5001 7.44229 24.5001 13.3333C24.5001 15.7983 23.664 18.0679 22.2599 19.8742L29.4429 27.0572L27.5573 28.9428L20.3743 21.7598C18.568 23.1639 16.2984 24 13.8334 24ZM21.8334 13.3333C21.8334 17.7516 18.2517 21.3333 13.8334 21.3333C9.41514 21.3333 5.83341 17.7516 5.83341 13.3333C5.83341 8.91505 9.41514 5.33332 13.8334 5.33332C18.2517 5.33332 21.8334 8.91505 21.8334 13.3333Z" fill="white"/>
</svg>
