<svg width="493" height="214" viewBox="0 0 493 214" fill="none" xmlns="http://www.w3.org/2000/svg">
<ellipse cx="4.58764" cy="210.24" rx="3.52358" ry="3.66869" transform="rotate(-90 4.58764 210.24)" fill="#70C217"/>
<ellipse cx="4.58764" cy="158.561" rx="3.52358" ry="3.66869" transform="rotate(-90 4.58764 158.561)" fill="#70C217"/>
<ellipse cx="4.58764" cy="106.882" rx="3.52358" ry="3.66869" transform="rotate(-90 4.58764 106.882)" fill="#70C217"/>
<ellipse cx="4.58764" cy="55.203" rx="3.52358" ry="3.66869" transform="rotate(-90 4.58764 55.203)" fill="#70C217"/>
<ellipse cx="4.58764" cy="3.52378" rx="3.52358" ry="3.66869" transform="rotate(-90 4.58764 3.52378)" fill="#70C217"/>
<ellipse cx="58.3953" cy="210.241" rx="3.52358" ry="3.66869" transform="rotate(-90 58.3953 210.241)" fill="#70C217"/>
<ellipse cx="58.3953" cy="158.561" rx="3.52358" ry="3.66869" transform="rotate(-90 58.3953 158.561)" fill="#70C217"/>
<ellipse cx="58.3953" cy="106.882" rx="3.52358" ry="3.66869" transform="rotate(-90 58.3953 106.882)" fill="#70C217"/>
<ellipse cx="58.3953" cy="55.203" rx="3.52358" ry="3.66869" transform="rotate(-90 58.3953 55.203)" fill="#70C217"/>
<ellipse cx="58.3953" cy="3.52378" rx="3.52358" ry="3.66869" transform="rotate(-90 58.3953 3.52378)" fill="#70C217"/>
<ellipse cx="112.203" cy="210.241" rx="3.52358" ry="3.66869" transform="rotate(-90 112.203 210.241)" fill="#70C217"/>
<ellipse cx="112.203" cy="158.561" rx="3.52358" ry="3.66869" transform="rotate(-90 112.203 158.561)" fill="#70C217"/>
<ellipse cx="112.203" cy="106.882" rx="3.52358" ry="3.66869" transform="rotate(-90 112.203 106.882)" fill="#70C217"/>
<ellipse cx="112.203" cy="55.203" rx="3.52358" ry="3.66869" transform="rotate(-90 112.203 55.203)" fill="#70C217"/>
<ellipse cx="112.203" cy="3.52378" rx="3.52358" ry="3.66869" transform="rotate(-90 112.203 3.52378)" fill="#70C217"/>
<ellipse cx="166.01" cy="210.241" rx="3.52358" ry="3.66869" transform="rotate(-90 166.01 210.241)" fill="#70C217"/>
<ellipse cx="166.01" cy="158.561" rx="3.52358" ry="3.66869" transform="rotate(-90 166.01 158.561)" fill="#70C217"/>
<ellipse cx="166.01" cy="106.882" rx="3.52358" ry="3.66869" transform="rotate(-90 166.01 106.882)" fill="#70C217"/>
<ellipse cx="166.01" cy="55.203" rx="3.52358" ry="3.66869" transform="rotate(-90 166.01 55.203)" fill="#70C217"/>
<ellipse cx="166.01" cy="3.52378" rx="3.52358" ry="3.66869" transform="rotate(-90 166.01 3.52378)" fill="#70C217"/>
<ellipse cx="219.818" cy="210.241" rx="3.52358" ry="3.66869" transform="rotate(-90 219.818 210.241)" fill="#70C217"/>
<ellipse cx="219.818" cy="158.561" rx="3.52358" ry="3.66869" transform="rotate(-90 219.818 158.561)" fill="#70C217"/>
<ellipse cx="219.818" cy="106.882" rx="3.52358" ry="3.66869" transform="rotate(-90 219.818 106.882)" fill="#70C217"/>
<ellipse cx="219.818" cy="55.203" rx="3.52358" ry="3.66869" transform="rotate(-90 219.818 55.203)" fill="#70C217"/>
<ellipse cx="219.818" cy="3.52378" rx="3.52358" ry="3.66869" transform="rotate(-90 219.818 3.52378)" fill="#70C217"/>
<ellipse cx="273.625" cy="210.241" rx="3.52358" ry="3.66869" transform="rotate(-90 273.625 210.241)" fill="#70C217"/>
<ellipse cx="273.625" cy="158.561" rx="3.52358" ry="3.66869" transform="rotate(-90 273.625 158.561)" fill="#70C217"/>
<ellipse cx="273.625" cy="106.882" rx="3.52358" ry="3.66869" transform="rotate(-90 273.625 106.882)" fill="#70C217"/>
<ellipse cx="273.625" cy="55.203" rx="3.52358" ry="3.66869" transform="rotate(-90 273.625 55.203)" fill="#70C217"/>
<ellipse cx="273.625" cy="3.52378" rx="3.52358" ry="3.66869" transform="rotate(-90 273.625 3.52378)" fill="#70C217"/>
<ellipse cx="327.432" cy="210.241" rx="3.52358" ry="3.66869" transform="rotate(-90 327.432 210.241)" fill="#70C217"/>
<ellipse cx="327.432" cy="158.561" rx="3.52358" ry="3.66869" transform="rotate(-90 327.432 158.561)" fill="#70C217"/>
<ellipse cx="327.432" cy="106.882" rx="3.52358" ry="3.66869" transform="rotate(-90 327.432 106.882)" fill="#70C217"/>
<ellipse cx="327.432" cy="55.203" rx="3.52358" ry="3.66869" transform="rotate(-90 327.432 55.203)" fill="#70C217"/>
<ellipse cx="327.432" cy="3.52378" rx="3.52358" ry="3.66869" transform="rotate(-90 327.432 3.52378)" fill="#70C217"/>
<ellipse cx="381.24" cy="210.241" rx="3.52358" ry="3.66869" transform="rotate(-90 381.24 210.241)" fill="#70C217"/>
<ellipse cx="381.24" cy="158.561" rx="3.52358" ry="3.66869" transform="rotate(-90 381.24 158.561)" fill="#70C217"/>
<ellipse cx="381.24" cy="106.882" rx="3.52358" ry="3.66869" transform="rotate(-90 381.24 106.882)" fill="#70C217"/>
<ellipse cx="381.24" cy="55.203" rx="3.52358" ry="3.66869" transform="rotate(-90 381.24 55.203)" fill="#70C217"/>
<ellipse cx="381.24" cy="3.52378" rx="3.52358" ry="3.66869" transform="rotate(-90 381.24 3.52378)" fill="#70C217"/>
<ellipse cx="435.048" cy="210.241" rx="3.52358" ry="3.66869" transform="rotate(-90 435.048 210.241)" fill="#70C217"/>
<ellipse cx="435.048" cy="158.561" rx="3.52358" ry="3.66869" transform="rotate(-90 435.048 158.561)" fill="#70C217"/>
<ellipse cx="435.048" cy="106.882" rx="3.52358" ry="3.66869" transform="rotate(-90 435.048 106.882)" fill="#70C217"/>
<ellipse cx="435.048" cy="55.203" rx="3.52358" ry="3.66869" transform="rotate(-90 435.048 55.203)" fill="#70C217"/>
<ellipse cx="435.048" cy="3.52378" rx="3.52358" ry="3.66869" transform="rotate(-90 435.048 3.52378)" fill="#70C217"/>
<ellipse cx="488.855" cy="210.241" rx="3.52358" ry="3.66869" transform="rotate(-90 488.855 210.241)" fill="#70C217"/>
<ellipse cx="488.855" cy="158.561" rx="3.52358" ry="3.66869" transform="rotate(-90 488.855 158.561)" fill="#70C217"/>
<ellipse cx="488.855" cy="106.882" rx="3.52358" ry="3.66869" transform="rotate(-90 488.855 106.882)" fill="#70C217"/>
<ellipse cx="488.855" cy="55.203" rx="3.52358" ry="3.66869" transform="rotate(-90 488.855 55.203)" fill="#70C217"/>
<ellipse cx="488.855" cy="3.52378" rx="3.52358" ry="3.66869" transform="rotate(-90 488.855 3.52378)" fill="#70C217"/>
</svg>
