<svg width="223" height="473" viewBox="0 0 223 473" fill="none" xmlns="http://www.w3.org/2000/svg">
<ellipse cx="219.193" cy="468.636" rx="3.66869" ry="3.52358" transform="rotate(-180 219.193 468.636)" fill="#70C217"/>
<ellipse cx="165.386" cy="468.636" rx="3.66869" ry="3.52358" transform="rotate(-180 165.386 468.636)" fill="#70C217"/>
<ellipse cx="111.579" cy="468.636" rx="3.66869" ry="3.52358" transform="rotate(-180 111.579 468.636)" fill="#70C217"/>
<ellipse cx="57.7713" cy="468.636" rx="3.66869" ry="3.52358" transform="rotate(-180 57.7713 468.636)" fill="#70C217"/>
<ellipse cx="3.96412" cy="468.636" rx="3.66869" ry="3.52358" transform="rotate(-180 3.96412 468.636)" fill="#70C217"/>
<ellipse cx="219.194" cy="416.957" rx="3.66869" ry="3.52358" transform="rotate(-180 219.194 416.957)" fill="#70C217"/>
<ellipse cx="165.386" cy="416.957" rx="3.66869" ry="3.52358" transform="rotate(-180 165.386 416.957)" fill="#70C217"/>
<ellipse cx="111.579" cy="416.957" rx="3.66869" ry="3.52358" transform="rotate(-180 111.579 416.957)" fill="#70C217"/>
<ellipse cx="57.7713" cy="416.957" rx="3.66869" ry="3.52358" transform="rotate(-180 57.7713 416.957)" fill="#70C217"/>
<ellipse cx="3.96412" cy="416.957" rx="3.66869" ry="3.52358" transform="rotate(-180 3.96412 416.957)" fill="#70C217"/>
<ellipse cx="219.194" cy="365.278" rx="3.66869" ry="3.52358" transform="rotate(-180 219.194 365.278)" fill="#70C217"/>
<ellipse cx="165.386" cy="365.278" rx="3.66869" ry="3.52358" transform="rotate(-180 165.386 365.278)" fill="#70C217"/>
<ellipse cx="111.579" cy="365.278" rx="3.66869" ry="3.52358" transform="rotate(-180 111.579 365.278)" fill="#70C217"/>
<ellipse cx="57.7713" cy="365.278" rx="3.66869" ry="3.52358" transform="rotate(-180 57.7713 365.278)" fill="#70C217"/>
<ellipse cx="3.96412" cy="365.278" rx="3.66869" ry="3.52358" transform="rotate(-180 3.96412 365.278)" fill="#70C217"/>
<ellipse cx="219.194" cy="313.599" rx="3.66869" ry="3.52358" transform="rotate(-180 219.194 313.599)" fill="#70C217"/>
<ellipse cx="165.386" cy="313.599" rx="3.66869" ry="3.52358" transform="rotate(-180 165.386 313.599)" fill="#70C217"/>
<ellipse cx="111.579" cy="313.599" rx="3.66869" ry="3.52358" transform="rotate(-180 111.579 313.599)" fill="#70C217"/>
<ellipse cx="57.7713" cy="313.599" rx="3.66869" ry="3.52358" transform="rotate(-180 57.7713 313.599)" fill="#70C217"/>
<ellipse cx="3.96412" cy="313.599" rx="3.66869" ry="3.52358" transform="rotate(-180 3.96412 313.599)" fill="#70C217"/>
<ellipse cx="219.194" cy="261.92" rx="3.66869" ry="3.52358" transform="rotate(-180 219.194 261.92)" fill="#70C217"/>
<ellipse cx="165.386" cy="261.92" rx="3.66869" ry="3.52358" transform="rotate(-180 165.386 261.92)" fill="#70C217"/>
<ellipse cx="111.579" cy="261.92" rx="3.66869" ry="3.52358" transform="rotate(-180 111.579 261.92)" fill="#70C217"/>
<ellipse cx="57.7713" cy="261.92" rx="3.66869" ry="3.52358" transform="rotate(-180 57.7713 261.92)" fill="#70C217"/>
<ellipse cx="3.96412" cy="261.92" rx="3.66869" ry="3.52358" transform="rotate(-180 3.96412 261.92)" fill="#70C217"/>
<ellipse cx="219.194" cy="210.24" rx="3.66869" ry="3.52358" transform="rotate(-180 219.194 210.24)" fill="#70C217"/>
<ellipse cx="165.386" cy="210.24" rx="3.66869" ry="3.52358" transform="rotate(-180 165.386 210.24)" fill="#70C217"/>
<ellipse cx="111.579" cy="210.24" rx="3.66869" ry="3.52358" transform="rotate(-180 111.579 210.24)" fill="#70C217"/>
<ellipse cx="57.7713" cy="210.24" rx="3.66869" ry="3.52358" transform="rotate(-180 57.7713 210.24)" fill="#70C217"/>
<ellipse cx="3.96412" cy="210.24" rx="3.66869" ry="3.52358" transform="rotate(-180 3.96412 210.24)" fill="#70C217"/>
<ellipse cx="219.194" cy="158.561" rx="3.66869" ry="3.52358" transform="rotate(-180 219.194 158.561)" fill="#70C217"/>
<ellipse cx="165.386" cy="158.561" rx="3.66869" ry="3.52358" transform="rotate(-180 165.386 158.561)" fill="#70C217"/>
<ellipse cx="111.579" cy="158.561" rx="3.66869" ry="3.52358" transform="rotate(-180 111.579 158.561)" fill="#70C217"/>
<ellipse cx="57.7713" cy="158.561" rx="3.66869" ry="3.52358" transform="rotate(-180 57.7713 158.561)" fill="#70C217"/>
<ellipse cx="3.96412" cy="158.561" rx="3.66869" ry="3.52358" transform="rotate(-180 3.96412 158.561)" fill="#70C217"/>
<ellipse cx="219.194" cy="106.882" rx="3.66869" ry="3.52358" transform="rotate(-180 219.194 106.882)" fill="#70C217"/>
<ellipse cx="165.386" cy="106.882" rx="3.66869" ry="3.52358" transform="rotate(-180 165.386 106.882)" fill="#70C217"/>
<ellipse cx="111.579" cy="106.882" rx="3.66869" ry="3.52358" transform="rotate(-180 111.579 106.882)" fill="#70C217"/>
<ellipse cx="57.7713" cy="106.882" rx="3.66869" ry="3.52358" transform="rotate(-180 57.7713 106.882)" fill="#70C217"/>
<ellipse cx="3.96412" cy="106.882" rx="3.66869" ry="3.52358" transform="rotate(-180 3.96412 106.882)" fill="#70C217"/>
<ellipse cx="219.194" cy="55.2028" rx="3.66869" ry="3.52358" transform="rotate(-180 219.194 55.2028)" fill="#70C217"/>
<ellipse cx="165.386" cy="55.2028" rx="3.66869" ry="3.52358" transform="rotate(-180 165.386 55.2028)" fill="#70C217"/>
<ellipse cx="111.579" cy="55.2028" rx="3.66869" ry="3.52358" transform="rotate(-180 111.579 55.2028)" fill="#70C217"/>
<ellipse cx="57.7713" cy="55.2028" rx="3.66869" ry="3.52358" transform="rotate(-180 57.7713 55.2028)" fill="#70C217"/>
<ellipse cx="3.96412" cy="55.2028" rx="3.66869" ry="3.52358" transform="rotate(-180 3.96412 55.2028)" fill="#70C217"/>
<ellipse cx="219.194" cy="3.52363" rx="3.66869" ry="3.52358" transform="rotate(-180 219.194 3.52363)" fill="#70C217"/>
<ellipse cx="165.386" cy="3.52363" rx="3.66869" ry="3.52358" transform="rotate(-180 165.386 3.52363)" fill="#70C217"/>
<ellipse cx="111.579" cy="3.52363" rx="3.66869" ry="3.52358" transform="rotate(-180 111.579 3.52363)" fill="#70C217"/>
<ellipse cx="57.7713" cy="3.52363" rx="3.66869" ry="3.52358" transform="rotate(-180 57.7713 3.52363)" fill="#70C217"/>
<ellipse cx="3.96412" cy="3.5236" rx="3.66869" ry="3.52358" transform="rotate(-180 3.96412 3.5236)" fill="#70C217"/>
</svg>
