<svg width="305" height="55" viewBox="0 0 305 55" fill="none" xmlns="http://www.w3.org/2000/svg">
<path d="M40.776 33.636C40.776 37.6387 39.3827 40.932 36.596 43.516C33.3533 46.556 28.54 48.076 22.156 48.076L7.792 47.924L1.864 48.304L0.8 48.38L0.876 47.392L1.712 47.316C3.58667 47.1133 4.87867 46.708 5.588 46.1C6.29733 45.492 6.652 44.4027 6.652 42.832V5.896C6.652 4.42667 6.29733 3.36267 5.588 2.704C4.87867 2.04533 3.58667 1.61466 1.712 1.412L0.876 1.336L0.8 0.347997L22.004 0.271998C26.5133 0.271998 30.1867 1.23466 33.024 3.16C35.8613 5.03466 37.28 7.61866 37.28 10.912C37.28 13.0907 36.5707 15.092 35.152 16.916C33.784 18.6893 31.9093 19.9813 29.528 20.792C37.0267 23.1227 40.776 27.404 40.776 33.636ZM32.036 11.596C32.036 8.30266 30.9213 5.84533 28.692 4.224C26.5133 2.60266 22.8147 1.792 17.596 1.792L11.82 2.096V19.728H22.004C25.4493 19.728 28.0587 18.8413 29.832 17.068C31.3013 15.5987 32.036 13.7747 32.036 11.596ZM34.772 33.788C34.772 30.1907 33.6573 27.3027 31.428 25.124C28.996 22.7427 25.6773 21.552 21.472 21.552H11.82V36.904C11.82 41.16 12.352 43.7693 13.416 44.732C14.48 45.6947 17.1907 46.176 21.548 46.176C25.3987 46.176 28.5653 44.9853 31.048 42.604C33.5307 40.2227 34.772 37.284 34.772 33.788ZM75.8862 40.856C74.8729 42.4773 74.1636 43.896 73.7582 45.112C73.5556 45.72 73.2516 46.7333 72.8462 48.152L63.8782 47.924H54.9102C54.0996 47.924 53.2129 47.9747 52.2502 48.076C51.3382 48.1773 50.4516 48.2533 49.5902 48.304L48.4502 48.38L48.5262 47.24L49.3622 47.164C51.2369 46.9613 52.4276 46.556 52.9342 45.948C53.4916 45.34 53.7702 44.2 53.7702 42.528V18.512C53.7702 16.8907 53.4916 15.776 52.9342 15.168C52.4276 14.5093 51.2369 14.0787 49.3622 13.876L48.5262 13.8L48.4502 12.66L49.5902 12.736C51.1609 12.888 52.1996 12.9893 52.7062 13.04C53.2636 13.0907 53.9982 13.116 54.9102 13.116H72.7702L74.1382 19.652L72.8462 19.576C72.3902 17.752 71.9089 16.6373 71.4022 16.232C70.8956 15.8267 69.8062 15.624 68.1342 15.624L58.2542 15.396V27.632H71.1742V29.836H58.2542V42.528C58.2542 43.896 58.3809 44.7573 58.6342 45.112C58.9382 45.416 59.7236 45.568 60.9902 45.568H67.0702C69.0462 45.568 70.4142 45.3147 71.1742 44.808C71.9849 44.2507 72.9729 42.984 74.1382 41.008L75.8862 40.856ZM116.245 45.264C116.549 46.2773 117.005 47.468 117.613 48.836C118.221 50.204 119.259 51.7747 120.729 53.548H119.589L117.613 51.268C116.853 50.356 116.219 49.6467 115.713 49.14C115.206 48.684 114.674 48.3293 114.117 48.076C113.61 47.8227 113.027 47.6707 112.369 47.62C111.71 47.5693 110.823 47.544 109.709 47.544C107.834 47.6453 105.858 47.7213 103.781 47.772C101.703 47.772 99.7779 47.7467 98.0046 47.696C95.9779 47.6453 93.9513 47.5947 91.9246 47.544C90.8099 47.544 89.9233 47.5693 89.2646 47.62C88.6059 47.6707 87.9979 47.8227 87.4406 48.076C86.9339 48.3293 86.4019 48.684 85.8446 49.14C85.3379 49.6467 84.7046 50.356 83.9446 51.268L82.1206 53.548H80.8286C82.3486 51.7747 83.3873 50.204 83.9446 48.836C84.5526 47.468 85.0086 46.2773 85.3126 45.264H85.8446C85.9966 45.264 86.1739 45.2893 86.3766 45.34C86.6299 45.34 86.9086 45.3653 87.2126 45.416H88.4286L93.9766 16.764V16.84C93.9766 15.8267 93.6979 15.2187 93.1406 15.016C92.6339 14.7627 91.6713 14.5347 90.2526 14.332H89.4166L89.2646 13.268L90.4046 13.42H90.5566C91.2659 13.4707 92.1273 13.496 93.1406 13.496C94.1539 13.496 94.9393 13.496 95.4966 13.496H106.517C107.074 13.496 107.834 13.496 108.797 13.496C109.81 13.496 110.671 13.4707 111.381 13.42H111.609L112.597 13.268L112.521 14.332H111.761C110.393 14.5347 109.43 14.7373 108.873 14.94C108.366 15.092 108.113 15.6747 108.113 16.688L113.053 45.416C113.458 45.416 113.863 45.416 114.269 45.416C114.674 45.416 115.029 45.3907 115.333 45.34C115.687 45.34 115.991 45.3147 116.245 45.264ZM103.173 15.624H98.6126L92.7606 45.492C94.1793 45.5427 95.5979 45.5933 97.0166 45.644C98.4353 45.6947 99.7273 45.72 100.893 45.72C101.957 45.72 103.173 45.6947 104.541 45.644C105.959 45.5933 107.378 45.5427 108.797 45.492L103.173 15.624ZM151.769 39.64C151.769 42.1227 150.655 44.2 148.425 45.872C146.247 47.4933 143.283 48.304 139.533 48.304C139.077 48.304 137.659 48.2533 135.277 48.152C132.947 48.1013 131.477 48.076 130.869 48.076C129.957 48.076 129.197 48.1013 128.589 48.152C127.981 48.2027 127.272 48.2533 126.461 48.304L125.701 48.38L125.777 47.62H126.385C127.753 47.468 128.691 47.164 129.197 46.708C129.755 46.2013 130.033 45.3907 130.033 44.276V17.22C130.033 16.0547 129.755 15.244 129.197 14.788C128.691 14.332 127.753 14.028 126.385 13.876H125.777L125.701 13.116L126.461 13.192L130.869 13.42H132.997L137.329 13.192L138.089 13.116L138.013 13.876H137.405C136.037 14.028 135.1 14.3573 134.593 14.864C134.087 15.32 133.833 16.1053 133.833 17.22V44.276C133.833 45.5427 134.061 46.328 134.517 46.632C135.024 46.8853 136.189 47.012 138.013 47.012C141.205 47.012 143.739 46.1253 145.613 44.352C147.285 42.7307 148.121 40.7293 148.121 38.348C148.121 35.5107 147.032 33.2307 144.853 31.508C142.725 29.7853 140.167 28.924 137.177 28.924L135.733 29V28.468L137.633 28.316C141.484 28.316 144.803 29.4053 147.589 31.584C150.376 33.712 151.769 36.3973 151.769 39.64ZM203.192 48.38L202.432 48.304L198.024 48.076H195.972L191.564 48.304L190.804 48.38L190.88 47.696L191.412 47.62C192.831 47.468 193.793 47.164 194.3 46.708C194.807 46.252 195.06 45.4667 195.06 44.352V16.84L182.824 20.564V44.352C182.824 45.416 183.077 46.2013 183.584 46.708C184.091 47.164 185.028 47.468 186.396 47.62L187.004 47.696L187.08 48.38L186.32 48.304L181.912 48.076H179.86L175.452 48.304L174.692 48.38L174.768 47.696L175.3 47.62C176.719 47.468 177.681 47.164 178.188 46.708C178.695 46.252 178.948 45.4667 178.948 44.352V20.564L166.712 16.84V44.352C166.712 45.416 166.965 46.2013 167.472 46.708C167.979 47.164 168.916 47.468 170.284 47.62L170.892 47.696L170.968 48.38L170.208 48.304L165.8 48.076H163.748L159.34 48.304L158.58 48.38L158.656 47.696L159.264 47.62C160.632 47.468 161.569 47.164 162.076 46.708C162.583 46.252 162.836 45.4667 162.836 44.352V17.22C162.836 16.156 162.583 15.3707 162.076 14.864C161.569 14.3573 160.632 14.0533 159.264 13.952L158.656 13.876L158.58 13.192H159.34C160.911 13.344 161.924 13.4707 162.38 13.572C163.545 13.7747 165.217 14.2307 167.396 14.94L180.848 19.044L194.376 14.94C196.251 14.2813 197.745 13.8507 198.86 13.648C200.025 13.4453 201.216 13.2933 202.432 13.192H203.192L203.116 13.876L202.508 13.952C201.14 14.0533 200.203 14.3573 199.696 14.864C199.189 15.32 198.936 16.1053 198.936 17.22V44.352C198.936 45.416 199.189 46.2013 199.696 46.708C200.203 47.164 201.14 47.468 202.508 47.62L203.116 47.696L203.192 48.38ZM248.394 48.38L247.33 48.304C246.57 48.2027 245.936 48.1267 245.43 48.076C244.923 48.076 244.543 48.0507 244.29 48C244.036 47.9493 243.732 47.924 243.378 47.924C243.023 47.924 242.618 47.924 242.162 47.924H239.426C238.615 47.924 237.754 47.9747 236.842 48.076C235.98 48.1773 235.119 48.2533 234.258 48.304L233.194 48.38L233.27 47.316L234.106 47.24C235.879 47.0373 237.019 46.6573 237.526 46.1C238.032 45.492 238.286 44.3773 238.286 42.756V42.3L238.134 37.968H220.274L220.122 42.452V42.756C220.122 44.3267 220.375 45.416 220.882 46.024C221.388 46.632 222.528 47.0373 224.302 47.24L225.138 47.316L225.214 48.38L224.15 48.304C223.39 48.2027 222.756 48.1267 222.25 48.076C221.743 48.076 221.363 48.0507 221.11 48C220.856 47.9493 220.552 47.924 220.198 47.924C219.843 47.924 219.438 47.924 218.982 47.924H216.246C215.435 47.924 214.574 47.9747 213.662 48.076C212.8 48.1773 211.939 48.2533 211.078 48.304L210.014 48.38L210.09 47.316L210.926 47.24C212.699 47.0373 213.839 46.6573 214.346 46.1C214.852 45.492 215.106 44.3773 215.106 42.756V42.452C215.106 35.916 216.271 30.064 218.602 24.896C220.983 19.6773 224.504 15.7 229.166 12.964C233.878 15.7 237.45 19.728 239.882 25.048C242.162 30.0133 243.302 35.764 243.302 42.3V42.756C243.302 44.3267 243.555 45.416 244.062 46.024C244.568 46.632 245.708 47.0373 247.482 47.24L248.318 47.316L248.394 48.38ZM237.906 35.46C237.45 29.7853 236.436 25.2507 234.866 21.856C233.346 18.4613 231.446 16.1307 229.166 14.864C226.886 16.08 224.986 18.36 223.466 21.704C221.946 25.048 220.932 29.6333 220.426 35.46H237.906ZM304.993 51.42C304.689 52.2307 303.726 52.8893 302.105 53.396C300.534 53.9533 298.66 54.232 296.481 54.232C291.718 54.232 286.778 52.0533 281.661 47.696C277.152 42.6293 272.668 37.5373 268.209 32.42C267.652 32.0147 266.942 31.812 266.081 31.812C265.726 31.8627 265.473 31.888 265.321 31.888V42.528C265.321 44.1493 265.574 45.264 266.081 45.872C266.588 46.48 267.753 46.8853 269.577 47.088L270.413 47.164L270.489 48.228L269.425 48.152C267.854 48 266.816 47.8987 266.309 47.848C265.802 47.7973 265.068 47.772 264.105 47.772H261.673C260.812 47.772 259.925 47.8227 259.013 47.924C258.152 48.0253 257.265 48.1013 256.353 48.152L255.289 48.228L255.365 47.164L256.201 47.088C258.025 46.8853 259.19 46.5053 259.697 45.948C260.204 45.34 260.457 44.2 260.457 42.528V18.968C260.457 17.3467 260.204 16.232 259.697 15.624C259.19 14.9653 258.025 14.5347 256.201 14.332L255.365 14.256L255.289 13.192L256.353 13.268C257.924 13.42 258.962 13.5213 259.469 13.572C259.976 13.6227 260.71 13.648 261.673 13.648H264.105C264.966 13.648 265.828 13.5973 266.689 13.496C267.601 13.3947 268.513 13.3187 269.425 13.268L270.489 13.192L270.413 14.256L269.577 14.332C267.753 14.5347 266.588 14.94 266.081 15.548C265.574 16.156 265.321 17.296 265.321 18.968V30.368C267.702 30.368 270.666 28.5187 274.213 24.82C277.76 21.1213 279.533 18.3853 279.533 16.612C279.533 15.9027 279.229 15.396 278.621 15.092C278.013 14.7373 276.873 14.484 275.201 14.332L274.365 14.256L274.289 13.192L275.353 13.268C276.924 13.42 277.962 13.5213 278.469 13.572C278.976 13.6227 279.71 13.648 280.673 13.648H281.661C282.472 13.648 283.333 13.5973 284.245 13.496C285.157 13.3947 286.069 13.3187 286.981 13.268L288.045 13.192L287.969 14.256L287.133 14.332C285.512 14.484 284.093 15.244 282.877 16.612C281.864 18.132 281.23 19.0947 280.977 19.5C279.406 21.7293 277.836 23.6547 276.265 25.276C274.745 26.8973 273.174 28.2907 271.553 29.456C275.454 34.6747 279.128 39.26 282.573 43.212C286.373 47.5187 290.198 50.3053 294.049 51.572C295.772 52.18 297.596 52.484 299.521 52.484C301.649 52.484 303.473 52.1293 304.993 51.42Z" fill="white"/>
</svg>
